<?xml version="1.0" encoding="utf-8"?>
<!-- Generator: Adobe Illustrator 24.1.1, SVG Export Plug-In . SVG Version: 6.00 Build 0)  -->
<svg version="1.1" id="Layer_1" xmlns="http://www.w3.org/2000/svg" xmlns:xlink="http://www.w3.org/1999/xlink" x="0px" y="0px"
	 viewBox="0 0 421.89 595.28" style="enable-background:new 0 0 421.89 595.28;" xml:space="preserve">
<style type="text/css">
	.st0{fill:#5D8199;}
	.st1{fill:#81A846;}
	.st2{fill:#F25012;}
	.st3{fill:#2E5A71;}
</style>
<g>
	<path class="st0" d="M316.29,291.61c14.27,0,27.82,3.01,40.08,8.45c-7.44-2.19-15.31-3.35-23.46-3.35
		c-44.29,0-80.52,34.48-83.31,78.06c-12.47,4.85-23.49,12.61-32.2,22.45c-0.15-2.15-0.22-4.31-0.22-6.49
		C217.17,335.99,261.54,291.61,316.29,291.61z"/>
	<path class="st1" d="M210.78,404.71c-8.82-54.03-59.77-90.67-113.8-81.85c-1.76,0.29-3.5,0.63-5.22,1.02
		c10.48,7.52,19.4,17.07,26.21,28.06c42.12-4.21,83.33,26.35,90.46,69.99c1.31,8.04,1.43,15.99,0.48,23.69
		C212.29,432.65,213.08,418.79,210.78,404.71z"/>
	<path class="st2" d="M214.98,96.6c-71.65,64.92-77.1,175.61-12.19,247.25c2.12,2.34,4.3,4.58,6.52,6.77
		c1.1-22.75,6.69-45.14,16.47-65.78C179.12,226.43,184.91,136,242.78,83.56c10.66-9.66,22.34-17.47,34.68-23.44
		C254.96,67.55,233.65,79.68,214.98,96.6z"/>
	<g>
		<polygon class="st3" points="110.7,459.78 101.39,459.78 71.04,495.44 71.04,459.78 63.27,459.78 63.27,534.24 71.04,534.24 
			71.04,504.15 74.32,500.49 101.69,534.24 111.91,534.24 79.38,494.82 		"/>
		<polygon class="st3" points="160.94,522.66 150.5,482.99 150.42,482.99 145.37,482.99 145.29,482.99 134.85,522.66 124.42,482.99 
			116.49,482.99 132.21,534.24 137.41,534.24 147.89,492.92 158.38,534.24 163.58,534.24 179.3,482.99 171.37,482.99 		"/>
		<rect x="188.15" y="482.99" class="st3" width="7.66" height="51.25"/>
		
			<ellipse transform="matrix(0.3827 -0.9239 0.9239 0.3827 -312.2736 465.1866)" class="st3" cx="191.96" cy="466.27" rx="4.42" ry="4.42"/>
		<rect x="236.01" y="482.99" class="st3" width="7.66" height="51.25"/>
		
			<ellipse transform="matrix(0.3827 -0.9239 0.9239 0.3827 -282.7263 509.407)" class="st3" cx="239.83" cy="466.27" rx="4.42" ry="4.42"/>
		<rect x="350.38" y="482.99" class="st3" width="7.66" height="51.25"/>
		
			<ellipse transform="matrix(0.9871 -0.1602 0.1602 0.9871 -70.1145 62.7569)" class="st3" cx="354.2" cy="466.27" rx="4.42" ry="4.42"/>
		<path class="st3" d="M218.39,524.43v-64.65h-7.36v65.98c0,7.96,4.55,9.36,7.91,9.36c3.37,0,8.22-2.22,8.22-2.22l-1.11-4.26
			C219.54,529.73,218.39,526.99,218.39,524.43z"/>
		<path class="st3" d="M276.39,482.68c-4.75,0.82-8.11,3.12-10.21,5.07v-27.97h-7.66v69.46v2.96v1.7
			c11.84,1.26,27.35,3.57,36.15-5.22c8.23-8.21,8.79-25.96,4.35-35.68C294.58,483.29,285.2,481.17,276.39,482.68z M286.75,526.54
			c-6.31,4.31-16.02,2.88-20.57,1.02v-34.98c1.9-1.44,4.81-3.04,8.95-3.79c8.51-1.55,14.36,1.33,17.47,9.85
			C295.71,507.15,293.58,521.88,286.75,526.54z"/>
		<path class="st3" d="M329.21,485.13c-4.03,2.27-6.44,4.87-7.81,6.77c0-0.45,0-0.79,0-1c0-3.44-0.7-7.91-0.7-7.91h-6.92
			c0,2.54,0.24,9.24,0.24,12.58c0,3.33,0,38.68,0,38.68h7.38c0,0,0-23.96,0-36.35c6.88-9.35,16.23-8.3,19.54-7.66l1.67-7.77
			C342.6,482.46,336.57,480.98,329.21,485.13z"/>
	</g>
</g>
</svg>
